HIERARCHY
ROOT Hips
{
	OFFSET 0.000000 0.000000 0.000000
	CHANNELS 6 Xposition Yposition Zposition Xrotation Yrotation Zrotation
	JOINT LeftUpLeg_virtual
	{
		OFFSET 0.000000 0.000000 0.000000
		CHANNELS 3 Xrotation Yrotation Zrotation
		JOINT LeftUpLeg
		{
			OFFSET 15.427100 -6.655098 0.678600
			CHANNELS 3 Xrotation Yrotation Zrotation
			JOINT LeftLeg
			{
				OFFSET 4.081073 -39.591068 13.024000
				CHANNELS 3 Xrotation Yrotation Zrotation
				JOINT LeftFoot
				{
					OFFSET -4.081074 -37.707932 -15.979700
					CHANNELS 3 Xrotation Yrotation Zrotation
					JOINT LeftToeBase
					{
						OFFSET 5.346399 -15.068900 20.645000
						CHANNELS 3 Xrotation Yrotation Zrotation
						JOINT LeftToe_End
						{
							OFFSET 2.754700 0.931300 11.300900
							CHANNELS 3 Xrotation Yrotation Zrotation
							End Site
							{
								OFFSET 0 0 0
							}
						}
					}
				}
			}
		}
	}
	JOINT RightUpLeg_virtual
	{
		OFFSET 0.000000 0.000000 0.000000
		CHANNELS 3 Xrotation Yrotation Zrotation
		JOINT RightUpLeg
		{
			OFFSET -15.569500 -6.655098 0.678600
			CHANNELS 3 Xrotation Yrotation Zrotation
			JOINT RightLeg
			{
				OFFSET -4.081825 -39.591045 13.023800
				CHANNELS 3 Xrotation Yrotation Zrotation
				JOINT RightFoot
				{
					OFFSET 4.081824 -37.707954 -15.979600
					CHANNELS 3 Xrotation Yrotation Zrotation
					JOINT RightToeBase
					{
						OFFSET -5.346400 -15.068900 20.645000
						CHANNELS 3 Xrotation Yrotation Zrotation
						JOINT RightToe_End
						{
							OFFSET -2.754700 0.931300 11.300900
							CHANNELS 3 Xrotation Yrotation Zrotation
							End Site
							{
								OFFSET 0 0 0
							}
						}
					}
				}
			}
		}
	}
	JOINT Spine_virtual
	{
		OFFSET 0.000000 0.000000 0.000000
		CHANNELS 3 Xrotation Yrotation Zrotation
		JOINT Spine
		{
			OFFSET -0.279200 12.230698 -2.892100
			CHANNELS 3 Xrotation Yrotation Zrotation
			JOINT Spine1
			{
				OFFSET -0.232667 10.192268 -1.242267
				CHANNELS 3 Xrotation Yrotation Zrotation
				JOINT Spine1_split
				{
					OFFSET -0.232667 10.192268 -1.242267
					CHANNELS 3 Xrotation Yrotation Zrotation
					JOINT Spine2
					{
						OFFSET -0.232667 10.192268 -1.242267
						CHANNELS 3 Xrotation Yrotation Zrotation
						JOINT Neck_virtual
						{
							OFFSET 0.000000 0.000000 0.000000
							CHANNELS 3 Xrotation Yrotation Zrotation
							JOINT Neck
							{
								OFFSET -0.418800 17.814194 8.416900
								CHANNELS 3 Xrotation Yrotation Zrotation
								JOINT Head
								{
									OFFSET 0.000000 7.031097 3.806800
									CHANNELS 3 Xrotation Yrotation Zrotation
									JOINT HeadTop_End
									{
										OFFSET 0.000000 24.646606 12.978600
										CHANNELS 3 Xrotation Yrotation Zrotation
										End Site
										{
											OFFSET 0 0 0
										}
									}
								}
							}
						}
						JOINT LeftShoulder_virtual
						{
							OFFSET 0.000000 0.000000 0.000000
							CHANNELS 3 Xrotation Yrotation Zrotation
							JOINT LeftShoulder
							{
								OFFSET 8.476499 7.247704 -3.868750
								CHANNELS 3 Xrotation Yrotation Zrotation
								JOINT LeftShoulder_split
								{
									OFFSET 8.476499 7.247704 -3.868750
									CHANNELS 3 Xrotation Yrotation Zrotation
									JOINT LeftArm
									{
										OFFSET 9.308998 -2.777710 0.208600
										CHANNELS 3 Xrotation Yrotation Zrotation
										JOINT LeftForeArm
										{
											OFFSET 29.972298 0.000000 0.000000
											CHANNELS 3 Xrotation Yrotation Zrotation
											JOINT LeftHand
											{
												OFFSET 26.026505 0.000000 0.000000
												CHANNELS 3 Xrotation Yrotation Zrotation
												End Site
												{
													OFFSET 0 0 0
												}
											}
										}
									}
								}
							}
						}
						JOINT RightShoulder_virtual
						{
							OFFSET 0.000000 0.000000 0.000000
							CHANNELS 3 Xrotation Yrotation Zrotation
							JOINT RightShoulder
							{
								OFFSET -7.570500 7.247704 -3.868750
								CHANNELS 3 Xrotation Yrotation Zrotation
								JOINT RightShoulder_split
								{
									OFFSET -7.570500 7.247704 -3.868750
									CHANNELS 3 Xrotation Yrotation Zrotation
									JOINT RightArm
									{
										OFFSET -9.308998 -2.777710 0.208500
										CHANNELS 3 Xrotation Yrotation Zrotation
										JOINT RightForeArm
										{
											OFFSET -29.972300 0.000000 0.000000
											CHANNELS 3 Xrotation Yrotation Zrotation
											JOINT RightHand
											{
												OFFSET -26.026505 0.000000 0.000000
												CHANNELS 3 Xrotation Yrotation Zrotation
												End Site
												{
													OFFSET 0 0 0
												}
											}
										}
									}
								}
							}
						}
					}
				}
			}
		}
	}
}
MOTION
Frames: 9
Frame Time: 0.03333333
5.401437 32.075958 -22.424294 0.000000 0.000000 0.000000 38.467482 -0.756996 4.238946 -88.970973 -7.067078 2.187495 124.119973 4.684569 0.566320 36.354689 10.711699 -32.503258 -1.309964 3.772345 26.350614 0.000000 0.000000 0.000000 40.034744 0.248380 2.545182 -70.398145 27.870181 -28.183790 116.513793 17.227610 4.777688 14.909478 16.156647 21.804218 -25.789660 -1.330879 -16.474705 0.000000 0.000000 0.000000 39.035805 -1.998358 2.233930 21.703281 4.031249 -7.795958 16.475897 2.003111 -0.712762 0.415399 -0.054779 1.499764 0.000000 0.000000 0.000000 17.618108 1.945441 -1.303246 3.595083 -0.774208 3.006154 -3.333769 -8.317769 5.799773 0.000000 0.000000 0.000000 16.828932 1.683780 -1.678042 0.872871 -35.392633 -5.828296 -0.803322 -1.834147 -0.447134 -59.212399 -43.146640 -54.612857 2.220813 -57.200184 1.956697 0.000000 0.000000 0.000000 16.160878 1.894613 -0.627050 -1.189507 12.172161 4.307219 1.351728 -1.473609 -2.686360 -47.240423 18.089565 46.773829 -2.833802 66.889559 1.575936 0.000000 0.000000 0.000000 
5.165565 31.693752 -23.495590 0.000000 0.000000 0.000000 36.711208 -1.120361 3.962194 -89.561368 -7.657810 2.671845 125.393599 4.372267 0.671671 37.599553 9.925424 -32.712860 -1.087892 3.839787 26.262885 0.000000 0.000000 0.000000 38.128414 0.000261 2.322035 -71.556873 28.452295 -25.232910 117.148126 16.806493 4.527945 15.735723 15.532093 22.592954 -25.599300 -1.389673 -16.464781 0.000000 0.000000 0.000000 37.262913 -2.753086 2.207059 21.112921 3.658872 -8.231175 17.641351 1.931899 -1.144081 0.610722 -0.333613 1.554456 0.000000 0.000000 0.000000 18.785435 1.944607 -1.720550 3.555219 -0.430497 2.330324 -1.737306 -7.864206 6.297504 0.000000 0.000000 0.000000 17.942945 1.661022 -2.094398 0.441047 -32.776193 -7.991365 -0.992543 -2.864724 -0.099798 -59.397880 -43.814649 -53.393764 2.570651 -57.291644 2.653003 0.000000 0.000000 0.000000 17.212113 1.817913 -1.010510 -1.087455 11.189010 4.451008 1.414683 -1.129682 -2.696153 -49.736123 18.977271 49.096530 -2.619663 67.430804 1.383119 0.000000 0.000000 0.000000 
4.916332 31.456448 -24.532227 0.000000 0.000000 0.000000 34.795326 -1.713009 3.641982 -89.480430 -8.124763 3.372763 126.344238 4.153781 0.870247 38.874964 9.096556 -33.070062 -1.062807 3.839766 26.245822 0.000000 0.000000 0.000000 36.094749 -0.483029 2.064632 -72.323951 28.516053 -21.883520 117.445021 16.306925 4.176530 16.373232 14.904779 23.454894 -25.464754 -1.403563 -16.409219 0.000000 0.000000 0.000000 35.279532 -3.734921 2.157292 20.544661 3.241845 -8.650168 18.410404 1.818714 -1.568759 0.537322 -0.711653 1.627355 0.000000 0.000000 0.000000 19.562169 1.902910 -2.120665 3.869829 -0.067647 1.618944 0.161896 -7.390888 6.911262 0.000000 0.000000 0.000000 18.686694 1.596395 -2.472769 0.122644 -29.455461 -10.211806 -1.071683 -3.633990 0.135911 -58.786728 -43.608965 -52.373344 3.106894 -59.287217 3.552457 0.000000 0.000000 0.000000 17.862008 1.673792 -1.392877 -0.909715 10.363671 4.560437 1.476554 -0.976309 -2.542953 -52.205543 20.163147 52.945789 -2.569561 67.776821 1.500868 0.000000 0.000000 0.000000 
4.662563 31.327827 -25.354874 0.000000 0.000000 0.000000 32.816795 -2.576728 3.323668 -88.668724 -8.341630 4.323095 126.930842 4.154720 1.076173 39.778018 8.585512 -33.299932 -1.093608 3.812125 26.219238 0.000000 0.000000 0.000000 34.029905 -1.315408 1.814554 -72.664737 28.186596 -18.437491 117.521082 15.801446 3.722017 16.790251 14.343546 24.344650 -25.214152 -1.391075 -16.334056 0.000000 0.000000 0.000000 33.172327 -4.945207 2.100870 20.086630 2.797921 -9.046572 18.843788 1.666532 -1.894186 0.377502 -1.180219 1.817864 0.000000 0.000000 0.000000 20.012152 1.799911 -2.427479 4.406558 0.288147 1.001692 2.102945 -6.950218 7.531101 0.000000 0.000000 0.000000 19.135308 1.478178 -2.729032 -0.028171 -25.878911 -12.151441 -0.971703 -3.960764 0.338182 -57.514721 -42.590304 -51.846416 3.654092 -62.565202 4.429609 0.000000 0.000000 0.000000 18.203197 1.485690 -1.689716 -0.700527 9.715172 4.556135 1.426945 -1.016384 -2.295412 -54.527337 21.448845 57.777171 -2.857660 67.412690 2.051984 0.000000 0.000000 0.000000 
4.403031 31.267128 -25.981522 0.000000 0.000000 0.000000 30.873859 -3.748401 3.073059 -87.161567 -8.164629 5.519185 127.161989 4.471438 1.267183 39.848410 8.679349 -33.137875 -1.134519 3.770243 26.143577 0.000000 0.000000 0.000000 32.045472 -2.416160 1.595419 -72.597002 27.588280 -15.206453 117.542652 15.300643 3.212824 16.948710 13.817444 25.159997 -24.926567 -1.354531 -16.256002 0.000000 0.000000 0.000000 31.099142 -6.286066 2.021923 19.816600 2.376791 -9.418411 19.048527 1.489485 -2.081393 -0.250130 -1.618970 2.198577 0.000000 0.000000 0.000000 20.206766 1.646910 -2.605071 4.978256 0.600191 0.607371 3.892405 -6.558443 8.075808 0.000000 0.000000 0.000000 19.407100 1.305064 -2.844698 -0.027995 -22.590009 -13.545501 -0.822163 -3.689279 0.562555 -56.232278 -40.977081 -52.119746 3.985297 -65.667734 5.053589 0.000000 0.000000 0.000000 18.368008 1.292398 -1.866350 -0.503381 9.356947 4.325894 1.233407 -1.280531 -1.788538 -56.525385 22.892655 62.654568 -3.400574 65.810771 2.834028 0.000000 0.000000 0.000000 
4.147581 31.201878 -26.372063 0.000000 0.000000 0.000000 29.101974 -5.141582 2.914167 -85.219751 -7.617661 6.762948 127.195075 5.044706 1.547406 39.005523 9.255156 -32.678193 -1.263238 3.708140 26.070559 0.000000 0.000000 0.000000 30.226039 -3.648252 1.432105 -72.198166 26.914335 -12.409929 117.615584 14.808683 2.674504 16.829876 13.284151 25.790424 -24.706406 -1.287780 -16.198798 0.000000 0.000000 0.000000 29.192229 -7.617264 1.927216 19.788337 2.003095 -9.753458 19.095971 1.296822 -2.121689 -0.378165 -2.165009 2.654673 0.000000 0.000000 0.000000 20.170061 1.457443 -2.660853 5.381898 0.864808 0.504519 5.370874 -6.325272 8.529774 0.000000 0.000000 0.000000 19.557427 1.083220 -2.839685 0.042453 -20.042350 -14.300654 -0.712041 -2.984013 0.703028 -55.056020 -39.137670 -53.078599 3.682570 -67.407321 5.002101 0.000000 0.000000 0.000000 18.402667 1.116331 -1.920818 -0.351856 9.252732 3.894733 0.984805 -1.606620 -1.166521 -58.072153 24.746940 66.952936 -3.890807 62.677094 3.487657 0.000000 0.000000 0.000000 
3.927858 31.128994 -26.536316 0.000000 0.000000 0.000000 27.562289 -6.633894 2.852558 -83.168509 -6.835209 7.865737 127.134641 5.696828 2.059221 37.568749 9.888615 -32.199479 -1.602314 3.626076 26.068383 0.000000 0.000000 0.000000 28.620301 -4.941632 1.353017 -71.566674 26.336455 -10.200654 117.739457 14.323074 2.189861 16.439818 12.701439 26.111147 -24.600176 -1.206043 -16.139551 0.000000 0.000000 0.000000 27.522331 -8.749919 1.807331 20.009866 1.695778 -10.021750 19.003053 1.106557 -2.070099 -0.438191 -2.606842 3.073813 0.000000 0.000000 0.000000 19.922629 1.266952 -2.640827 5.527616 1.029174 0.692872 6.488939 -6.229245 8.892815 0.000000 0.000000 0.000000 19.573837 0.838665 -2.762375 0.088848 -18.447053 -14.515639 -0.817170 -2.135648 0.696200 -53.957665 -37.314177 -54.575226 2.768352 -67.554150 4.271360 0.000000 0.000000 0.000000 18.291189 0.974963 -1.890547 -0.233899 9.281676 3.328808 0.789118 -1.800046 -0.554661 -58.835038 27.027767 70.193752 -4.175950 58.599471 3.815500 0.000000 0.000000 0.000000 
3.767902 31.071678 -26.553757 0.000000 0.000000 0.000000 26.282691 -8.087141 2.892443 -81.333913 -5.990800 8.653051 127.138029 6.340288 2.793929 36.139754 10.278764 -31.916494 -2.040766 3.555363 26.094418 0.000000 0.000000 0.000000 27.293503 -6.165469 1.380896 -70.829328 25.959558 -8.634466 117.845939 13.862985 1.770698 15.882186 12.127541 26.085981 -24.584137 -1.125056 -16.069695 0.000000 0.000000 0.000000 26.135903 -9.586237 1.697804 20.407658 1.481744 -10.180211 18.707697 0.933907 -1.976248 -0.307060 -2.969788 3.292112 0.000000 0.000000 0.000000 19.393403 1.097506 -2.583731 5.428795 1.098984 1.098350 7.294162 -6.421859 9.269540 0.000000 0.000000 0.000000 19.342833 0.604305 -2.660503 0.066060 -17.735105 -14.362617 -1.054346 -1.381444 0.354998 -52.944129 -35.541453 -56.223757 1.719252 -66.713804 3.301523 0.000000 0.000000 0.000000 17.918820 0.861022 -1.813132 -0.150767 9.351986 2.689578 0.759355 -1.818950 0.065597 -58.558313 29.787821 72.316957 -4.214402 54.737430 3.806288 0.000000 0.000000 0.000000 
3.707649 31.089085 -26.376129 0.000000 0.000000 0.000000 25.275882 -9.380692 3.004188 -79.862506 -5.222051 9.049677 127.296667 6.982235 3.614474 35.106766 10.461457 -31.885642 -2.147567 3.586417 25.997455 0.000000 0.000000 0.000000 26.248572 -7.342891 1.526236 -70.091524 25.881159 -7.643726 117.890117 13.466702 1.407118 15.380609 11.712332 25.804344 -24.579899 -1.054040 -15.999903 0.000000 0.000000 0.000000 25.024867 -10.091043 1.628243 20.902030 1.359842 -10.173266 18.119078 0.797860 -1.879023 0.080143 -3.164256 3.189312 0.000000 0.000000 0.000000 18.516737 0.982674 -2.515819 5.151926 1.075113 1.577181 7.872917 -6.955495 9.718788 0.000000 0.000000 0.000000 18.740671 0.420980 -2.536277 -0.031550 -17.703299 -14.035050 -1.303996 -0.793905 -0.159081 -51.541164 -33.822127 -57.507563 0.744020 -65.816290 2.320224 0.000000 0.000000 0.000000 17.164257 0.767739 -1.713854 -0.076564 9.334024 2.118410 0.885070 -1.719443 0.508032 -57.086690 32.751331 73.374332 -4.116279 52.009848 3.588624 0.000000 0.000000 0.000000 
